<?xml version="1.0" standalone="no"?>
<!DOCTYPE svg PUBLIC "-//W3C//DTD SVG 20010904//EN"
 "http://www.w3.org/TR/2001/REC-SVG-20010904/DTD/svg10.dtd">
<svg version="1.0" xmlns="http://www.w3.org/2000/svg"
 width="3274.000000pt" height="3274.000000pt" viewBox="0 0 3274.000000 3274.000000"
 preserveAspectRatio="xMidYMid meet">
<metadata>
Created by potrace 1.11, written by Peter Selinger 2001-2013
</metadata>
<g transform="translate(0.000000,3274.000000) scale(0.100000,-0.100000)"
fill="#000000" stroke="none">
<path d="M16370 31484 c-2168 -102 -4142 -606 -6025 -1539 -2498 -1238 -4626
-3173 -6107 -5555 -1255 -2019 -2009 -4322 -2193 -6705 -30 -389 -36 -535 -42
-1005 -6 -485 3 -841 33 -1255 216 -3060 1331 -5918 3240 -8300 364 -454 652
-774 1113 -1236 375 -374 530 -519 847 -791 2431 -2082 5519 -3341 8769 -3573
116 -8 307 -19 425 -25 295 -14 4013 -14 4151 0 330 34 552 91 944 245 515
202 789 344 1058 546 338 254 1346 891 1952 1233 375 212 1090 559 1509 732
320 133 829 315 1074 385 146 42 84 225 -111 333 -137 75 -279 105 -532 113
-296 9 -544 -19 -865 -98 -495 -121 -1112 -379 -1649 -688 l-124 -71 91 97
c142 155 760 762 947 933 222 201 405 358 586 503 81 64 149 123 153 132 3 9
6 30 6 47 0 45 -64 100 -185 158 -136 66 -212 83 -360 84 -382 1 -674 -175
-1375 -829 -207 -193 -650 -639 -870 -875 -290 -311 -629 -701 -764 -880 -27
-36 -54 -71 -60 -79 -8 -10 -8 -13 0 -10 6 2 56 58 111 124 405 484 1356 1371
2043 1907 350 273 527 381 705 433 93 27 258 44 268 28 4 -6 -40 -43 -96 -84
-130 -95 -194 -153 -220 -204 -25 -48 -34 -163 -18 -220 l11 -40 -132 -124
c-391 -367 -1019 -1008 -1426 -1456 -230 -253 -872 -858 -1222 -1152 -267
-224 -379 -301 -869 -594 -453 -271 -598 -346 -820 -423 -94 -33 -113 -36
-209 -36 l-107 1 90 38 c219 92 436 218 585 338 111 90 289 278 384 405 153
208 257 399 386 713 103 251 354 775 462 966 375 659 896 1267 1615 1885 218
188 229 203 198 264 -9 17 -28 36 -43 41 -91 36 -332 50 -489 28 -258 -35
-525 -143 -790 -319 -619 -410 -1390 -1376 -1894 -2372 -77 -152 -159 -303
-183 -335 -44 -60 -113 -112 -176 -132 -133 -42 -614 -65 -880 -42 -285 24
-446 61 -699 158 -497 191 -869 371 -1450 702 -152 87 -339 192 -416 233
-1195 644 -2242 930 -3130 858 -438 -36 -922 -143 -1350 -299 -60 -22 -111
-39 -112 -37 -4 3 440 306 677 462 244 161 561 344 723 419 239 110 547 177
947 205 212 14 1032 12 2115 -6 1015 -17 2342 -14 2630 5 88 6 275 18 415 26
140 9 373 25 517 36 l262 20 55 -41 c144 -108 287 -119 668 -50 89 17 163 28
165 26 7 -7 -184 -182 -247 -227 -146 -104 -322 -188 -512 -245 -359 -107
-1529 -246 -2813 -334 -511 -35 -502 -37 145 -38 779 -2 1279 14 1808 59 717
60 1057 144 1380 340 170 104 372 296 475 450 73 110 148 267 154 323 5 38 2
48 -20 70 -33 33 -65 33 -199 1 -391 -94 -992 -157 -2133 -226 -504 -30 -1327
-35 -2695 -15 -613 9 -1250 18 -1415 20 -957 13 -1449 -60 -1870 -278 -306
-159 -444 -245 -785 -490 -369 -264 -1534 -1145 -1526 -1153 2 -2 64 27 138
66 301 158 682 317 1058 442 440 146 829 233 1260 280 173 20 593 17 770 -5
720 -87 1494 -360 2365 -831 99 -54 288 -159 420 -235 530 -304 858 -465 1321
-650 456 -183 631 -218 1121 -227 641 -12 856 47 1006 275 25 37 103 184 175
327 341 678 818 1354 1302 1849 397 405 730 627 1084 722 l90 24 -150 -153
c-239 -242 -274 -296 -274 -425 l0 -72 -81 -88 c-361 -387 -676 -818 -924
-1266 -100 -180 -296 -592 -425 -897 -152 -358 -235 -511 -377 -701 -102 -136
-314 -347 -431 -428 -253 -177 -596 -325 -980 -424 l-144 -37 -1476 4 c-971 3
-1530 8 -1632 16 -560 41 -835 69 -1245 127 -2291 324 -4510 1200 -6433 2541
-1323 923 -2492 2051 -3459 3338 -1584 2109 -2572 4586 -2862 7175 -110 977
-119 2020 -25 3015 277 2964 1450 5777 3368 8079 278 334 514 593 841 925 438
444 816 785 1290 1166 2342 1883 5198 3005 8190 3220 647 46 1433 48 2060 5
3426 -236 6627 -1642 9172 -4028 459 -430 1035 -1221 1478 -2027 114 -207 341
-673 438 -895 485 -1115 758 -2183 853 -3335 25 -297 25 -958 1 -1210 -57
-587 -172 -1114 -367 -1688 -379 -1116 -1041 -2238 -1908 -3237 -399 -459
-805 -807 -1392 -1195 -741 -489 -1406 -796 -1920 -886 -110 -20 -339 -17
-420 5 -169 46 -249 144 -258 316 -9 183 62 373 324 860 45 86 97 191 115 235
28 70 31 88 27 150 -8 121 -78 235 -144 235 -56 0 -248 -110 -969 -555 -948
-585 -1251 -763 -1573 -925 -272 -136 -398 -175 -432 -135 -38 46 1 190 110
410 65 132 170 312 520 885 78 129 166 282 194 340 l51 105 0 111 c0 103 -2
114 -30 169 -41 79 -88 105 -192 105 -89 0 -185 -29 -317 -98 -183 -94 -458
-297 -686 -506 -261 -240 -340 -307 -440 -373 -507 -338 -1106 -526 -1905
-597 -233 -21 -639 -38 -822 -34 l-152 3 131 119 c388 355 778 850 1092 1386
130 222 350 665 468 940 268 627 514 1381 779 2390 44 168 84 308 87 311 4 4
133 88 287 186 3460 2219 5539 3891 6262 5038 299 472 391 888 250 1124 -94
157 -293 261 -586 307 -162 26 -488 23 -706 -5 -1083 -142 -2341 -712 -3340
-1515 -1082 -869 -1825 -1950 -2164 -3153 -28 -98 -91 -362 -140 -588 -115
-528 -149 -676 -222 -975 l-60 -245 -77 -50 c-1786 -1144 -3131 -1970 -6597
-4053 l-1150 -691 -325 60 c-179 33 -678 127 -1110 209 -1081 205 -1280 241
-1630 291 -201 29 -487 32 -630 6 -430 -79 -601 -293 -535 -673 75 -429 416
-870 949 -1227 131 -87 371 -224 478 -272 37 -16 67 -32 67 -35 0 -3 -55 -38
-122 -79 -241 -147 -1048 -652 -1337 -838 -748 -481 -1389 -930 -1524 -1068
-62 -63 -106 -131 -106 -165 0 -67 68 -95 146 -61 25 12 211 131 413 265 469
312 843 552 1466 941 638 398 1402 865 1416 865 6 0 93 -27 194 -59 790 -256
1654 -362 2706 -332 537 16 912 43 1339 97 990 125 1877 378 2605 741 264 132
608 341 819 497 l72 53 645 6 c633 5 785 12 1064 43 646 71 1167 258 1640 585
50 34 110 76 135 92 54 37 187 150 404 345 284 256 456 381 456 334 0 -14 -99
-175 -276 -452 -484 -753 -674 -1152 -674 -1415 0 -134 34 -200 127 -242 66
-30 181 -34 285 -9 298 70 843 332 1878 901 474 260 633 345 647 345 6 0 -9
-46 -34 -102 -162 -368 -193 -645 -96 -845 150 -309 622 -398 1283 -242 799
189 1862 740 2665 1382 188 151 485 464 760 802 536 659 971 1337 1341 2090
524 1067 798 2054 865 3120 22 358 2 965 -47 1400 -131 1173 -486 2364 -1043
3500 -417 850 -863 1538 -1414 2178 -160 186 -548 580 -685 695 -449 377 -664
552 -936 756 -1545 1164 -3291 2011 -5166 2507 -770 203 -1631 355 -2425 428
-503 47 -659 53 -1325 56 -355 1 -679 1 -720 -1z m9460 -6434 c319 -33 510
-165 538 -369 12 -83 -3 -198 -39 -304 -304 -910 -2075 -2424 -5449 -4659
-565 -375 -833 -548 -838 -544 -6 7 294 1161 414 1593 106 381 176 566 334
888 272 553 601 1006 1080 1486 272 272 531 494 840 719 966 704 2143 1181
2955 1198 39 1 113 -3 165 -8z m-6500 -6777 c0 -38 -201 -716 -309 -1043 -438
-1320 -974 -2317 -1658 -3081 -138 -155 -443 -453 -584 -572 l-116 -97 -109 0
c-244 0 -903 33 -1324 65 -812 64 -1750 176 -2625 316 -137 21 -296 47 -353
56 -57 8 -100 19 -95 23 4 4 314 189 688 410 2577 1527 4475 2675 5930 3589
297 186 543 339 548 340 4 1 7 -2 7 -6z m-10518 -4108 c179 -25 372 -58 993
-172 319 -58 769 -138 1001 -177 l421 -71 -915 -540 c-503 -297 -954 -563
-1002 -592 l-88 -51 -123 62 c-474 239 -820 566 -970 917 -72 168 -108 385
-80 472 23 69 120 126 256 151 109 19 367 20 507 1z m3173 -535 c1358 -186
2648 -307 3830 -360 138 -6 318 -14 400 -18 l150 -7 -101 -67 c-792 -519
-1724 -855 -2804 -1012 -827 -120 -1813 -134 -2620 -36 -342 42 -732 119
-1013 201 -240 69 -247 72 -247 78 0 3 478 288 1063 633 904 534 1066 626
1092 622 17 -2 129 -18 250 -34z m14604 -8726 c33 -4 61 -11 61 -15 0 -5 -5
-9 -10 -9 -23 0 -162 -73 -249 -130 -98 -64 -204 -164 -234 -221 -17 -31 -35
-41 -185 -103 -384 -159 -1124 -515 -1462 -704 -614 -343 -1654 -996 -2010
-1262 -286 -215 -525 -339 -1044 -545 -116 -46 -263 -99 -326 -119 -110 -35
-290 -78 -290 -70 0 2 15 11 33 20 17 9 213 124 434 257 622 372 753 475 1533
1202 493 460 573 527 835 702 789 525 1792 929 2470 992 113 10 362 13 444 5z"/>
<path d="M11240 7147 c-25 -23 -60 -55 -79 -70 -44 -37 -34 -45 11 -9 73 57
140 122 127 122 -8 0 -34 -20 -59 -43z"/>
</g>
</svg>
