<svg xmlns="http://www.w3.org/2000/svg" xmlns:xlink="http://www.w3.org/1999/xlink" version="1.1" style="" xml:space="preserve" width="2620.0001099705714" height="1020.0000593066225"><rect id="backgroundrect" width="100%" height="100%" x="0" y="0" fill="none" stroke="none" class="selected" style=""/>


<g class="currentLayer" style=""><title>Layer 1</title><g id="Warstwa_1">
</g><g id="Warstwa_3" class="">
	<g id="svg_1">
		<linearGradient id="SVGID_1_" gradientUnits="userSpaceOnUse" x1="1198.478271484375" y1="3295.0322265625" x2="2457.716064453125" y2="3295.0322265625" transform="translate(-1198.479248046875,0) translate(0,-1995.80615234375) translate(0,-995.8060302734375) ">
			<stop offset="0" style="stop-color:#EAA3C2"/>
			<stop offset="1" style="stop-color:#C96D8D"/>
		</linearGradient>
		<path style="fill:url(#SVGID_1_);" d="M1251.873751953125,438.3918173828124 c-24.981,25.044 -78.717,56.632 -114.71,56.632 c-20.638,0 -35.3,-10.258 -36.055,-38.195 c15.418,-13.277 26.491,-25.799 26.491,-30.958 c0,-2.203 -1.509,-2.895 -5.159,-2.895 c-15.479,0 -27.247,14.724 -31.651,31.588 c-11.768,8.873 -60.282,42.663 -80.921,42.663 c-6.606,0 -9.564,-3.649 -9.564,-9.565 c0,-22.778 46.376,-78.655 119.179,-78.655 c5.158,0 11.012,0 16.926,0.6920000000000006 c2.201,0 10.319,0 10.319,-8.054 c0,-3.712 -0.7540000000000003,-8.809 -22.086,-8.809 c-52.792,0 -95.896,27.372 -120.625,56.065 c0,0 -0.06300000000000004,0 -0.126,0.06300000000000004 c-8.494,6.859 -18.751,14.032 -29.322,20.324 c-24.226,14.725 -59.589,30.896 -84.57,30.896 c-8.117,0 -16.928,-5.852 -16.928,-13.214 c0,-27.938 42.663,-54.43 42.663,-63.302 c0,-2.894 -2.203,-7.299 -5.852,-7.299 c-3.713,0 -8.117,2.202 -13.278,6.607 c-17.617,-2.202 -22.023,-8.873 -22.023,-19.128 c0,-10.32 16.172,-21.332 16.172,-26.491 c0,-1.447 -1.51,-2.957 -5.16,-2.957 c-8.809,1.51 -16.926,9.564 -22.841,19.128 c-5.853,13.278 -21.269,30.141 -38.195,44.865 c-4.53,4.531 -10.005,9.313 -16.172,14.032 c-27.749,21.394 -69.09,42.6 -98.602,42.6 c-20.576,0 -35.3,-10.258 -36.055,-38.195 c15.479,-13.277 26.491,-25.799 26.491,-30.958 c0,-2.203 -1.447,-2.895 -5.159,-2.895 c-15.418,0 -27.184,14.724 -31.588,31.588 c-11.767,8.873 -60.345,42.663 -80.921,42.663 c-6.607,0 -9.565,-3.649 -9.565,-9.565 c0,-22.778 46.313,-78.655 119.178,-78.655 c5.16,0 11.012,0 16.928,0.6920000000000006 c2.201,0 10.256,0 10.256,-8.054 c0,-3.712 -0.6910000000000006,-8.809 -22.023,-8.809 c-51.471,0 -93.819,26.05 -118.864,53.989 c0,0.06300000000000004 -0.062000000000000034,0.06300000000000004 -0.125,0.126 c-33.35,23.156 -73.307,26.743 -118.613,26.743 c58.835,-50.717 82.431,-126.477 103.006,-206.706 c154.479,-98.539 275.105,-189.716 275.105,-244.146 c0,-15.479 -15.479,-22.842 -38.258,-22.842 c-68.399,0 -208.908,66.951 -239.049,199.344 c-4.404,20.576 -8.81,41.215 -13.969,61.036 c-101.497,65.503 -215.515,133.147 -313.362,191.981 c-66.196,-11.767 -118.424,-23.533 -136.106,-23.533 c-22.778,0 -33.789,8.117 -33.789,21.331 c0,20.639 19.066,48.578 61.036,67.706 c-55.184,33.791 -98.602,61.792 -119.178,78.718 c-3.6500000000000004,3.6500000000000004 -5.16,5.852 -5.16,7.299 c0,2.265 1.51,2.958 3.713,2.958 c0.6910000000000006,0 5.097,-2.203 5.852,-2.958 c36.811,-24.981 79.474,-51.472 127.988,-80.857 c26.491,9.564 59.589,16.172 100.805,16.172 c97.091,0 163.288,-21.332 208.908,-55.94 h16.172 c37.062,0 68.461,0 98.979,-14.346 c-5.538,9.942 -8.558,19.317 -8.558,26.868 c0,11.012 5.916,18.375 20.576,18.375 c17.682,0 57.387,-23.534 87.527,-47.068 v4.405 c0,20.639 9.565,39.013 34.608,39.013 c44.74,0 115.844,-41.656 135.161,-63.805 c0.06500000000000004,0 0.126,-0.06300000000000004 0.1910000000000001,-0.18800000000000008 c9.248,-8.054 18.877,-16.864 27.182,-25.736 c2.203,7.362 9.565,13.214 22.779,16.172 c-14.662,15.416 -27.938,36.055 -27.938,47.067 c0,18.373 16.17,26.491 33.853,26.491 c29.007,0 69.091,-17.493 98.979,-35.866 c-3.6500000000000004,7.802 -5.601,15.038 -5.601,21.142 c0,11.012 5.916,18.375 20.641000000000002,18.375 c17.618,0 57.323,-23.534 87.527,-47.068 v4.405 c0,20.639 9.565,39.013 34.545,39.013 c44.864,0 116.22,-41.908 135.35,-63.993 L1251.873751953125,438.3918173828124 zM586.2637519531249,176.56481738281263 c30.141,-105.209 152.276,-167 208.152,-167 c16.928,0 27.94,5.915 27.94,17.681 c0,42.663 -112.509,127.232 -254.466,219.165 C573.740751953125,223.63181738281264 579.656751953125,200.09781738281254 586.2637519531249,176.56481738281263 zM135.34875195312497,510.5028173828123 c-36.055,-16.172 -47.821,-39.706 -47.821,-55.94 c0,-6.606 7.362,-9.564 22.086,-9.564 c13.213,0 51.471,8.873 106.656,17.682 L135.34875195312497,510.5028173828123 zM245.7177519531249,530.3248173828124 c-41.97,0 -73.558,-5.852 -97.154,-13.97 l86.08,-50.717 c51.535,7.363 114.774,14.724 187.577,16.927 C379.55775195312503,511.9508173828126 322.925751953125,530.3248173828124 245.7177519531249,530.3248173828124 zM433.231751953125,473.69281738281234 c-60.282,-0.6920000000000006 -125.031,-8.81 -181.663,-18.374 c95.644,-56.632 197.142,-116.976 289.074,-175.055 C520.8217519531249,355.26981738281256 492.1297519531249,426.6248173828126 433.231751953125,473.69281738281234 z" id="svg_2"/>
		<linearGradient id="SVGID_2_" gradientUnits="userSpaceOnUse" x1="2006.802490234375" y1="3437.0205078125" x2="2023.035888671875" y2="3437.0205078125" transform="translate(-1198.479248046875,0) translate(0,-1995.80615234375) translate(0,-995.8060302734375) ">
			<stop offset="0" style="stop-color:#EA94BB;stop-opacity:0.8"/>
			<stop offset="1" style="stop-color:#AD325B;stop-opacity:0.8"/>
		</linearGradient>
		<path style="fill:url(#SVGID_2_);" d="M808.3227519531249,452.36081738281246 c0,0 0,0 0.06100000000000003,0.06300000000000004 c6.167,-4.719 11.642,-9.501 16.172,-14.032 C818.6417519531251,443.5518173828127 814.2377519531251,447.95681738281246 808.3227519531249,452.36081738281246 z" id="svg_3"/>
		<linearGradient id="SVGID_3_" gradientUnits="userSpaceOnUse" x1="2477.536376953125" y1="3266.91943359375" x2="3801.521728515625" y2="3266.91943359375" transform="translate(-1198.479248046875,0) translate(0,-1995.80615234375) translate(0,-995.8060302734375) ">
			<stop offset="0" style="stop-color:#EAA3C2"/>
			<stop offset="1" style="stop-color:#C96D8D"/>
		</linearGradient>
		<path style="fill:url(#SVGID_3_);" d="M2603.042751953125,446.50981738281234 c-38.258,36.811 -91.931,44.864 -141.263,52.227 c36.055,-24.289 66.196,-68.398 66.196,-93.442 c0,-10.257 -5.853,-16.927 -18.376,-16.927 c-15.415,0 -33.853,11.074 -75.761,50.025 c-0.12300000000000004,0.126 -0.24900000000000008,0.252 -0.37500000000000017,0.31400000000000017 l-0.31600000000000017,-0.31400000000000017 c-24.288,24.289 -89.037,66.196 -122.135,66.196 c-38.949,0 -54.429,-20.576 -54.429,-54.43 v-7.362 c101.496,-77.208 316.318,-312.606 316.318,-380.25 c0,-11.768 -6.67,-18.374 -21.329,-18.374 c-106.971,0 -301.029,262.645 -312.797,397.303 c-25.296,23.974 -77.46,54.303 -112.383,54.303 c-11.012,0 -15.416,-5.159 -15.416,-12.522 c0,-21.331 35.301,-63.993 35.301,-71.355 c0,-1.448 -0.7560000000000003,-3.6500000000000004 -1.447,-5.097 c-1.51,-2.203 -2.957,-2.957 -5.16,-2.957 c-5.663,0 -19.695,16.297 -31.147,36.244 c-25.673000000000002,24.729 -77.775,54.933 -113.011,54.933 c-20.576,0 -35.301,-10.258 -36.055,-38.195 c15.479,-13.277 26.491,-25.799 26.491,-30.958 c0,-2.203 -1.51,-2.895 -5.16,-2.895 c-15.416,0 -27.245,14.724 -31.651,31.588 c-11.766,8.873 -60.282,42.663 -80.919,42.663 c-6.607,0 -9.502,-3.649 -9.502,-9.565 c0,-22.778 46.311,-78.655 119.115,-78.655 c5.16,0 11.075,0 16.926,0.6920000000000006 c2.203,0 10.32,0 10.32,-8.054 c0,-3.712 -0.7560000000000003,-8.809 -22.086,-8.809 c-53.297,0 -96.778,27.938 -121.318,56.946 c-31.84,27.372 -87.779,65.882 -123.584,65.882 c-19.884,0 -33.097,-11.768 -33.097,-44.173 c0,-83.123 54.429,-192.674 54.429,-244.209 c0,-18.373 -6.607,-29.385 -25.043,-29.385 c-35.301,0 -94.89,44.11 -152.969,99.294 c29.385,-64.749 50.717,-128.742 50.717,-167.693 c0,-156.68 -272.147,49.675 -330.226,-103.356 c-1.51,-4.405 -4.406,-5.159 -6.607,-5.159 c-16.235,0 -16.235,8.117 -16.235,8.117 c44.173,157.435 341.3,-50.431 341.3,104.803 c0,45.557 -31.588,121.317 -68.398,191.981 c-69.154,72.049 -128.679,152.969 -128.679,184.62 c0,4.404 2.201,7.362 6.606,7.362 c27.184,0 90.486,-94.197 139,-194.183 c62.546,-62.547 130.945,-117.731 161.085,-117.731 c10.32,0 13.97,8.117 13.97,21.331 c0,50.024 -55.122,175.81 -55.122,238.356 c0,47.067 19.821,63.994 47.067,63.994 c31.714,0 73.747,-22.968 106.215,-47.445 c-1.6360000000000001,4.908 -2.516,9.502 -2.516,13.591 c0,11.012 5.852,18.375 20.576,18.375 c17.619,0 57.386,-23.534 87.527,-47.068 v4.405 c0,20.639 9.564,39.013 34.545,39.013 c34.419,0 84.507,-24.729 114.521,-46.187 c-3.459,9.125 -5.662,17.997 -5.662,25.548000000000002 c0,12.522 5.914,21.394 22.086,21.394 c38.886,0 97.658,-31.525 125.094,-54.24 c0.9430000000000003,37.88 19.569,61.54 63.93,61.54 c42.411,0 111.123,-44.614 134.658,-68.147 l0.062000000000000034,-0.06300000000000004 l14.6,-12.648 c18.373,-16.926 38.255,-30.895 49.267,-30.895 c5.162,0 7.365,2.894 7.365,8.054 c0,22.086 -43.42,82.367 -77.272,83.877 c-5.097,-0.7550000000000003 -8.056,-3.712 -9.565,-14.724 c-0.6910000000000006,-4.405 -3.6500000000000004,-5.915 -6.606,-5.915 c-8.056,0 -14.726,6.6690000000000005 -14.726,14.724 c0,16.927 13.97,23.534 34.608,23.534 c32.344,0 82.37,-14.661 119.181,-34.545 C2575.798751953125,470.04381738281245 2594.924751953125,456.07381738281265 2603.042751953125,446.50981738281234 L2603.042751953125,446.50981738281234 zM2543.454751953125,54.429817382812416 c8.809,0 12.52,4.405 12.52,12.522 c0,56.632 -203.747,292.723 -297.19,359.674 C2281.626751953125,297.18981738281263 2468.446751953125,54.429817382812416 2543.454751953125,54.429817382812416 zM1440.897751953125,496.5338173828127 c-1.447,0 -2.201,-0.7560000000000003 -2.201,-2.203 c0,-20.638 41.907,-75.76 94.134,-133.147 C1491.6777519531252,435.4348173828125 1449.0147519531251,496.5338173828127 1440.897751953125,496.5338173828127 z" id="svg_4"/>
		<path style="fill:#CA6F90;" d="M2218.387751953125,295.6798173828124 c-8.872,0 -19.129,12.522 -19.129,19.884 c0,3.649 2.894,7.362 6.607,7.362 c8.054,0 17.619,-13.214 17.619,-20.576 C2223.485751953125,298.6378173828125 2222.038751953125,295.6798173828124 2218.387751953125,295.6798173828124 z" id="svg_5"/>
		<g id="svg_6">
			<g id="svg_7">
				<linearGradient id="SVGID_4_" gradientUnits="userSpaceOnUse" x1="1866.07763671875" y1="1342.9140625" x2="3251.331298828125" y2="2385.071044921875" transform="translate(-1198.479248046875,0) translate(0,-1995.80615234375) translate(0,-995.8060302734375) ">
					<stop offset="0" style="stop-color:#EAA3C2"/>
					<stop offset="1" style="stop-color:#C96D8D"/>
				</linearGradient>
			</g>
		</g>
		<g id="svg_8">
			<linearGradient id="SVGID_5_" gradientUnits="userSpaceOnUse" x1="1560.98779296875" y1="3691.218017578125" x2="3439.01220703125" y2="3691.218017578125" transform="translate(-1198.479248046875,0) translate(0,-1995.80615234375) translate(0,-995.8060302734375) ">
				<stop offset="0" style="stop-color:#EAA3C2"/>
				<stop offset="1" style="stop-color:#C96D8D"/>
			</linearGradient>
			<polygon style="fill:url(#SVGID_5_);" points="362.5087890625,699.605712890625 597.26171875,698.630859375 832.0147705078125,698.07470703125 1301.520751953125,697.607666015625 1771.02685546875,698.06787109375 2005.77978515625,698.625 2240.53271484375,699.605712890625 2005.77978515625,700.585693359375 1771.02685546875,701.14404296875 1301.520751953125,701.603759765625 832.0147705078125,701.137939453125 597.26171875,700.579833984375 " id="svg_9"/>
		</g>
		<g id="svg_10">
			<path style="fill:#353535;" d="M40.16875195312491,1001.7148173828127 c-11.67,-4.447 -20.775,-10.199 -27.323,-17.25 l5.793,-9.569 c6.209,6.547 14.562,11.879 25.056,15.991 c10.489,4.115 21.53,6.1690000000000005 33.115,6.1690000000000005 c16.785,0 29.463,-3.187 38.025,-9.569 c8.562,-6.378 12.843,-14.689 12.843,-24.931 c0,-7.8900000000000015 -2.266,-14.185 -6.799,-18.887 c-4.533,-4.698 -10.16,-8.311 -16.873,-10.828 c-6.7170000000000005,-2.519 -15.782,-5.119 -27.196,-7.807 c-12.93,-3.187 -23.294,-6.296 -31.101,-9.317 c-7.807,-3.022 -14.44,-7.681 -19.894,-13.977 c-5.458,-6.295 -8.184,-14.731 -8.184,-25.308 c0,-8.562 2.266,-16.408 6.799,-23.545 c4.533,-7.134 11.458,-12.8 20.775,-16.998 c9.317,-4.195 20.94,-6.295 34.877,-6.295 c9.735,0 19.304,1.428 28.708,4.281 c9.4,2.856 17.541,6.716 24.426,11.583 l-4.784,10.324 c-7.051,-4.867 -14.819,-8.562 -23.294,-11.08 c-8.479,-2.519 -16.833,-3.778 -25.056,-3.778 c-16.286,0 -28.625,3.274 -37.018,9.821 c-8.396,6.548 -12.591,15.027 -12.591,25.435 c0,7.893 2.266,14.188 6.799,18.886 c4.533,4.702 10.156,8.31 16.873,10.829 c6.713,2.518 15.865,5.205 27.449,8.058 c12.925,3.191 23.25,6.295 30.974,9.317 c7.72,3.021 14.311,7.598 19.768,13.724 c5.454,6.131 8.184,14.398 8.184,24.805 c0,8.562 -2.309,16.368 -6.925,23.419 c-4.62,7.051 -11.71,12.677 -21.279,16.872 c-9.569,4.198 -21.323,6.295 -35.255,6.295 C64.1317519531251,1008.3878173828125 51.83475195312508,1006.1648173828125 40.16875195312491,1001.7148173828127 z" id="svg_11"/>
			<path style="fill:#353535;" d="M267.9407519531251,967.8448173828124 h-82.347 l-18.13,39.285 h-12.843 l65.725,-141.776 h12.591 l65.978,141.776 h-13.095 L267.9407519531251,967.8448173828124 zM262.90375195312504,957.2688173828124 l-36.263,-79.073 l-36.262,79.073 H262.90375195312504 z" id="svg_12"/>
			<path style="fill:#353535;" d="M427.3417519531249,1007.1288173828125 l-33.744,-46.588 c-4.029,0.504 -8.228,0.7560000000000003 -12.591,0.7560000000000003 h-40.041 v45.832 h-12.591 v-141.776 h52.632 c18.13,0 32.359,4.241 42.683,12.717 c10.325,8.479 15.487,20.271 15.487,35.381 c0,11.08 -2.896,20.441 -8.688,28.078 c-5.792,7.641 -14.063,13.138 -24.804,16.494 l35.758,49.105 H427.3417519531249 zM414.62375195312507,941.0258173828124 c7.807,-6.46 11.71,-15.653 11.71,-27.574 c0,-11.919 -3.903,-21.066 -11.71,-27.448 c-7.806,-6.378 -19.181,-9.569 -34.121,-9.569 h-39.537 v74.287 h39.537 C395.442751953125,950.7208173828126 406.817751953125,947.4908173828126 414.62375195312507,941.0258173828124 z" id="svg_13"/>
			<path style="fill:#353535;" d="M570.625751953125,967.8448173828124 h-82.347 l-18.13,39.285 h-12.844 l65.725,-141.776 h12.591 l65.978,141.776 h-13.095 L570.625751953125,967.8448173828124 zM565.588751953125,957.2688173828124 l-36.263,-79.073 l-36.262,79.073 H565.588751953125 z" id="svg_14"/>
			<path style="fill:#353535;" d="M841.8327519531249,830.8528173828126 v176.276 h-10.576 l-120.12,-153.108 v153.108 h-12.843 v-176.276 h10.828 l119.867,153.108 v-153.108 H841.8327519531249 z" id="svg_15"/>
			<path style="fill:#353535;" d="M922.163751953125,998.9448173828123 c-11.419,-6.295 -20.398,-14.94 -26.945,-25.938 c-6.548,-10.993 -9.822,-23.294 -9.822,-36.891 c0,-13.43 3.274,-25.643 9.822,-36.641 c6.547,-10.993 15.526,-19.642 26.945,-25.937 c11.415,-6.295 24.175,-9.443 38.277,-9.443 s26.858,3.1470000000000002 38.277,9.443 c11.415,6.296 20.398,14.944 26.945,25.937 c6.548,10.998 9.821,23.211 9.821,36.641 c0,13.598 -3.273,25.898 -9.821,36.891 c-6.547,10.998 -15.53,19.643 -26.945,25.938 c-11.419,6.296 -24.175,9.443 -38.277,9.443 S933.578751953125,1005.2408173828126 922.163751953125,998.9448173828123 zM992.2957519531251,989.2498173828126 c9.483,-5.202 16.954,-12.465 22.412,-21.782 c5.454,-9.318 8.184,-19.682 8.184,-31.101 c0,-11.583 -2.73,-21.991 -8.184,-31.226 c-5.458,-9.23 -12.929,-16.494 -22.412,-21.782 c-9.487,-5.288 -20.106,-7.932 -31.856,-7.932 c-11.753,0 -22.329,2.645 -31.73,7.932 c-9.404,5.288 -16.833,12.591 -22.286,21.909 c-5.458,9.317 -8.184,19.685 -8.184,31.1 c0,11.419 2.726,21.782 8.184,31.101 c5.454,9.317 12.882,16.58 22.286,21.782 c9.401,5.205 19.977,7.806 31.73,7.806 C972.1897519531249,997.0558173828126 982.8097519531252,994.4548173828125 992.2957519531251,989.2498173828126 z" id="svg_16"/>
			<path style="fill:#353535;" d="M1265.3947519531248,865.3538173828124 l-48.602,141.776 h-13.347 l-43.565,-123.896 l-43.314,123.896 h-13.597 l-48.603,-141.776 h13.347 l42.557,124.903 l43.817,-124.903 h12.087 l43.566,125.659 l43.061,-125.659 H1265.3947519531248 z" id="svg_17"/>
			<path style="fill:#353535;" d="M1320.795751953125,998.9448173828123 c-11.419,-6.295 -20.398,-14.94 -26.945,-25.938 c-6.548,-10.993 -9.822,-23.294 -9.822,-36.891 c0,-13.43 3.274,-25.643 9.822,-36.641 c6.547,-10.993 15.526,-19.642 26.945,-25.937 c11.415,-6.295 24.175,-9.443 38.277,-9.443 c14.102,0 26.858,3.1470000000000002 38.277,9.443 c11.415,6.296 20.398,14.944 26.945,25.937 c6.548,10.998 9.821,23.211 9.821,36.641 c0,13.598 -3.273,25.898 -9.821,36.891 c-6.547,10.998 -15.53,19.643 -26.945,25.938 c-11.419,6.296 -24.175,9.443 -38.277,9.443 C1344.969751953125,1008.3878173828125 1332.210751953125,1005.2408173828126 1320.795751953125,998.9448173828123 zM1390.928751953125,989.2498173828126 c9.483,-5.202 16.954,-12.465 22.412,-21.782 c5.454,-9.318 8.184,-19.682 8.184,-31.101 c0,-11.583 -2.73,-21.991 -8.184,-31.226 c-5.458,-9.23 -12.929,-16.494 -22.412,-21.782 c-9.487,-5.288 -20.107,-7.932 -31.856,-7.932 c-11.753,0 -22.329,2.645 -31.73,7.932 c-9.404,5.288 -16.833,12.591 -22.286,21.909 c-5.458,9.317 -8.184,19.685 -8.184,31.1 c0,11.419 2.726,21.782 8.184,31.101 c5.454,9.317 12.882,16.58 22.286,21.782 c9.401,5.205 19.977,7.806 31.73,7.806 C1370.821751953125,997.0558173828126 1381.4417519531248,994.4548173828125 1390.928751953125,989.2498173828126 z" id="svg_18"/>
			<path style="fill:#353535;" d="M1475.411751953125,865.3538173828124 h57.416 c15.613,0 29.211,2.983 40.795,8.939 c11.584,5.961 20.481,14.315 26.693,25.056 c6.209,10.746 9.317,23.002 9.317,36.767 c0,13.937 -3.108,26.276 -9.317,37.017 c-6.213,10.747 -15.109,19.1 -26.693,25.056 c-11.583,5.961 -25.182,8.94 -40.795,8.94 h-57.416 V865.3538173828124 zM1532.3237519531249,996.3008173828125 c13.429,0 25.014,-2.518 34.752,-7.554 c9.734,-5.037 17.163,-12.087 22.286,-21.153 c5.119,-9.066 7.68,-19.556 7.68,-31.478 c0,-11.749 -2.561,-22.117 -7.68,-31.1 c-5.123,-8.979 -12.552,-15.991 -22.286,-21.027 c-9.738,-5.036 -21.323,-7.554 -34.752,-7.554 h-44.321 v119.867 H1532.3237519531249 z" id="svg_19"/>
			<path style="fill:#353535;" d="M1839.545751953125,865.3538173828124 l-48.602,141.776 h-13.347 l-43.565,-123.896 l-43.313,123.896 H1677.120751953125 l-48.603,-141.776 h13.347 l42.557,124.903 l43.817,-124.903 h12.087 l43.566,125.659 l43.061,-125.659 H1839.545751953125 z" id="svg_20"/>
			<path style="fill:#353535;" d="M1894.9457519531252,998.9448173828123 c-11.419,-6.295 -20.398,-14.94 -26.945,-25.938 c-6.548,-10.993 -9.822,-23.294 -9.822,-36.891 c0,-13.43 3.274,-25.643 9.822,-36.641 c6.547,-10.993 15.526,-19.642 26.945,-25.937 c11.415,-6.295 24.175,-9.443 38.277,-9.443 s26.858,3.1470000000000002 38.277,9.443 c11.415,6.296 20.398,14.944 26.945,25.937 c6.548,10.998 9.821,23.211 9.821,36.641 c0,13.598 -3.273,25.898 -9.821,36.891 c-6.547,10.998 -15.53,19.643 -26.945,25.938 c-11.419,6.296 -24.175,9.443 -38.277,9.443 S1906.3607519531251,1005.2408173828126 1894.9457519531252,998.9448173828123 zM1965.0777519531248,989.2498173828126 c9.483,-5.202 16.954,-12.465 22.412,-21.782 c5.454,-9.318 8.184,-19.682 8.184,-31.101 c0,-11.583 -2.73,-21.991 -8.184,-31.226 c-5.458,-9.23 -12.929,-16.494 -22.412,-21.782 c-9.487,-5.288 -20.107,-7.932 -31.856,-7.932 c-11.753,0 -22.329,2.645 -31.73,7.932 c-9.404,5.288 -16.833,12.591 -22.286,21.909 c-5.458,9.317 -8.184,19.685 -8.184,31.1 c0,11.419 2.726,21.782 8.184,31.101 c5.454,9.317 12.883000000000001,16.58 22.286,21.782 c9.401,5.205 19.977,7.806 31.73,7.806 C1944.971751953125,997.0558173828126 1955.591751953125,994.4548173828125 1965.0777519531248,989.2498173828126 z" id="svg_21"/>
			<path style="fill:#353535;" d="M2148.527751953125,1007.1288173828125 l-33.744,-46.588 c-4.029,0.504 -8.228,0.7560000000000003 -12.591,0.7560000000000003 h-40.041 v45.832 h-12.591 v-141.776 h52.632 c18.13,0 32.358,4.241 42.683,12.717 c10.324,8.479 15.487,20.271 15.487,35.381 c0,11.08 -2.896,20.441 -8.688,28.078 c-5.792,7.641 -14.063,13.138 -24.804,16.494 l35.758,49.105 H2148.527751953125 zM2135.810751953125,941.0258173828124 c7.807,-6.46 11.71,-15.653 11.71,-27.574 c0,-11.919 -3.904,-21.066 -11.71,-27.448 c-7.806,-6.378 -19.181,-9.569 -34.121,-9.569 h-39.537 v74.287 h39.537 C2116.629751953125,950.7208173828126 2128.004751953125,947.4908173828126 2135.810751953125,941.0258173828124 z" id="svg_22"/>
			<path style="fill:#353535;" d="M2212.109751953125,1003.0998173828125 c-9.655,-3.525 -17.25,-8.058 -22.79,-13.598 l5.792,-9.57 c5.202,5.206 12.087,9.404 20.649,12.591 c8.562,3.191 17.542,4.785 26.946,4.785 c13.259,0 23.207,-2.432 29.841,-7.303 c6.63,-4.867 9.947,-11.245 9.947,-19.139 c0,-6.043 -1.806,-10.867 -5.414,-14.479 c-3.612,-3.608 -8.102,-6.378 -13.473,-8.31 c-5.375,-1.928 -12.508,-3.903 -21.405,-5.918 c-10.577,-2.518 -19.056,-4.993 -25.434,-7.429 c-6.382,-2.431 -11.835,-6.209 -16.368,-11.332 c-4.533,-5.118 -6.799,-12.043 -6.799,-20.775 c0,-11.245 4.489,-20.48 13.472,-27.701 c8.979,-7.216 21.782,-10.827 38.404,-10.827 c8.392,0 16.451,1.093 24.175,3.273 c7.72,2.184 14.354,5.375 19.894,9.569 l-5.037,10.325 c-10.746,-8.058 -23.841,-12.087 -39.284,-12.087 c-12.929,0 -22.664,2.518 -29.211,7.554 c-6.548,5.037 -9.821,11.502 -9.821,19.39 c0,6.044 1.802,10.871 5.414,14.479 c3.608,3.612 8.015,6.382 13.22,8.311 c5.202,1.932 12.505,3.99 21.909,6.17 c10.407,2.518 18.843,4.997 25.308,7.429 c6.461,2.435 11.919,6.17 16.369,11.205 c4.446,5.037 6.673,11.753 6.673,20.146 c0,11.418 -4.533,20.692 -13.598,27.826 c-9.066,7.138 -22.078,10.703 -39.033,10.703 C2231.878751953125,1008.3878173828125 2221.761751953125,1006.6248173828126 2212.109751953125,1003.0998173828125 z" id="svg_23"/>
			<path style="fill:#353535;" d="M2379.193751953125,938.8848173828123 l-30.975,31.226 v37.018 h-12.591 v-141.776 h12.591 v88.641 l87.382,-88.641 h14.857 l-62.451,64.467 l66.733,77.309 h-15.361 L2379.193751953125,938.8848173828123 z" id="svg_24"/>
			<path style="fill:#353535;" d="M2566.301751953125,967.8448173828124 h-82.347 l-18.13,39.285 h-12.844 l65.726,-141.776 h12.591 l65.978,141.776 h-13.095 L2566.301751953125,967.8448173828124 zM2561.264751953125,957.2688173828124 l-36.263,-79.073 l-36.262,79.073 H2561.264751953125 z" id="svg_25"/>
		</g>
	</g>
	<g id="svg_26">
	</g>
	<g id="svg_27">
	</g>
	<g id="svg_28">
	</g>
	<g id="svg_29">
	</g>
	<g id="svg_30">
	</g>
	<g id="svg_31">
	</g>
	<g id="svg_32">
	</g>
	<g id="svg_33">
	</g>
	<g id="svg_34">
	</g>
	<g id="svg_35">
	</g>
	<g id="svg_36">
	</g>
</g></g></svg>