<?xml version="1.0" encoding="iso-8859-1"?>
<!-- Generator: Adobe Illustrator 23.0.2, SVG Export Plug-In . SVG Version: 6.00 Build 0)  -->
<svg version="1.1" xmlns="http://www.w3.org/2000/svg" xmlns:xlink="http://www.w3.org/1999/xlink" x="0px" y="0px"
	 viewBox="0 0 10000 5000" style="enable-background:new 0 0 4000 5000;" xml:space="preserve">
<g id="Warstwa_1">
</g>
<g id="Warstwa_3">
	<g>
		<linearGradient id="SVGID_1_" gradientUnits="userSpaceOnUse" x1="1198.4783" y1="3295.0322" x2="2457.7161" y2="3295.0322">
			<stop  offset="0" style="stop-color:#EAA3C2"/>
			<stop  offset="1" style="stop-color:#C96D8D"/>
		</linearGradient>
		<path style="fill:url(#SVGID_1_);" d="M2450.353,3430.004c-24.981,25.044-78.717,56.632-114.71,56.632
			c-20.638,0-35.3-10.258-36.055-38.195c15.418-13.277,26.491-25.799,26.491-30.958c0-2.203-1.509-2.895-5.159-2.895
			c-15.479,0-27.247,14.724-31.651,31.588c-11.768,8.873-60.282,42.663-80.921,42.663c-6.606,0-9.564-3.649-9.564-9.565
			c0-22.778,46.376-78.655,119.179-78.655c5.158,0,11.012,0,16.926,0.692c2.201,0,10.319,0,10.319-8.054
			c0-3.712-0.754-8.809-22.086-8.809c-52.792,0-95.896,27.372-120.625,56.065c0,0-0.063,0-0.126,0.063
			c-8.494,6.859-18.751,14.032-29.322,20.324c-24.226,14.725-59.589,30.896-84.57,30.896c-8.117,0-16.928-5.852-16.928-13.214
			c0-27.938,42.663-54.43,42.663-63.302c0-2.894-2.203-7.299-5.852-7.299c-3.713,0-8.117,2.202-13.278,6.607
			c-17.617-2.202-22.023-8.873-22.023-19.128c0-10.32,16.172-21.332,16.172-26.491c0-1.447-1.51-2.957-5.16-2.957
			c-8.809,1.51-16.926,9.564-22.841,19.128c-5.853,13.278-21.269,30.141-38.195,44.865c-4.53,4.531-10.005,9.313-16.172,14.032
			c-27.749,21.394-69.09,42.6-98.602,42.6c-20.576,0-35.3-10.258-36.055-38.195c15.479-13.277,26.491-25.799,26.491-30.958
			c0-2.203-1.447-2.895-5.159-2.895c-15.418,0-27.184,14.724-31.588,31.588c-11.767,8.873-60.345,42.663-80.921,42.663
			c-6.607,0-9.565-3.649-9.565-9.565c0-22.778,46.313-78.655,119.178-78.655c5.16,0,11.012,0,16.928,0.692
			c2.201,0,10.256,0,10.256-8.054c0-3.712-0.691-8.809-22.023-8.809c-51.471,0-93.819,26.05-118.864,53.989
			c0,0.063-0.062,0.063-0.125,0.126c-33.35,23.156-73.307,26.743-118.613,26.743c58.835-50.717,82.431-126.477,103.006-206.706
			c154.479-98.539,275.105-189.716,275.105-244.146c0-15.479-15.479-22.842-38.258-22.842c-68.399,0-208.908,66.951-239.049,199.344
			c-4.404,20.576-8.81,41.215-13.969,61.036c-101.497,65.503-215.515,133.147-313.362,191.981
			c-66.196-11.767-118.424-23.533-136.106-23.533c-22.778,0-33.789,8.117-33.789,21.331c0,20.639,19.066,48.578,61.036,67.706
			c-55.184,33.791-98.602,61.792-119.178,78.718c-3.65,3.65-5.16,5.852-5.16,7.299c0,2.265,1.51,2.958,3.713,2.958
			c0.691,0,5.097-2.203,5.852-2.958c36.811-24.981,79.474-51.472,127.988-80.857c26.491,9.564,59.589,16.172,100.805,16.172
			c97.091,0,163.288-21.332,208.908-55.94h16.172c37.062,0,68.461,0,98.979-14.346c-5.538,9.942-8.558,19.317-8.558,26.868
			c0,11.012,5.916,18.375,20.576,18.375c17.682,0,57.387-23.534,87.527-47.068v4.405c0,20.639,9.565,39.013,34.608,39.013
			c44.74,0,115.844-41.656,135.161-63.805c0.065,0,0.126-0.063,0.191-0.188c9.248-8.054,18.877-16.864,27.182-25.736
			c2.203,7.362,9.565,13.214,22.779,16.172c-14.662,15.416-27.938,36.055-27.938,47.067c0,18.373,16.17,26.491,33.853,26.491
			c29.007,0,69.091-17.493,98.979-35.866c-3.65,7.802-5.601,15.038-5.601,21.142c0,11.012,5.916,18.375,20.641,18.375
			c17.618,0,57.323-23.534,87.527-47.068v4.405c0,20.639,9.565,39.013,34.545,39.013c44.864,0,116.22-41.908,135.35-63.993
			L2450.353,3430.004z M1784.743,3168.177c30.141-105.209,152.276-167,208.152-167c16.928,0,27.94,5.915,27.94,17.681
			c0,42.663-112.509,127.232-254.466,219.165C1772.22,3215.244,1778.136,3191.71,1784.743,3168.177z M1333.828,3502.115
			c-36.055-16.172-47.821-39.706-47.821-55.94c0-6.606,7.362-9.564,22.086-9.564c13.213,0,51.471,8.873,106.656,17.682
			L1333.828,3502.115z M1444.197,3521.937c-41.97,0-73.558-5.852-97.154-13.97l86.08-50.717
			c51.535,7.363,114.774,14.724,187.577,16.927C1578.037,3503.563,1521.405,3521.937,1444.197,3521.937z M1631.711,3465.305
			c-60.282-0.692-125.031-8.81-181.663-18.374c95.644-56.632,197.142-116.976,289.074-175.055
			C1719.301,3346.882,1690.609,3418.237,1631.711,3465.305z"/>
		<linearGradient id="SVGID_2_" gradientUnits="userSpaceOnUse" x1="2006.8025" y1="3437.0205" x2="2023.0359" y2="3437.0205">
			<stop  offset="0" style="stop-color:#EA94BB;stop-opacity:0.8"/>
			<stop  offset="1" style="stop-color:#AD325B;stop-opacity:0.8"/>
		</linearGradient>
		<path style="fill:url(#SVGID_2_);" d="M2006.802,3443.973c0,0,0,0,0.061,0.063c6.167-4.719,11.642-9.501,16.172-14.032
			C2017.121,3435.164,2012.717,3439.569,2006.802,3443.973z"/>
		<linearGradient id="SVGID_3_" gradientUnits="userSpaceOnUse" x1="2477.5364" y1="3266.9194" x2="3801.5217" y2="3266.9194">
			<stop  offset="0" style="stop-color:#EAA3C2"/>
			<stop  offset="1" style="stop-color:#C96D8D"/>
		</linearGradient>
		<path style="fill:url(#SVGID_3_);" d="M3801.522,3438.122c-38.258,36.811-91.931,44.864-141.263,52.227
			c36.055-24.289,66.196-68.398,66.196-93.442c0-10.257-5.853-16.927-18.376-16.927c-15.415,0-33.853,11.074-75.761,50.025
			c-0.123,0.126-0.249,0.252-0.375,0.314l-0.316-0.314c-24.288,24.289-89.037,66.196-122.135,66.196
			c-38.949,0-54.429-20.576-54.429-54.43v-7.362c101.496-77.208,316.318-312.606,316.318-380.25c0-11.768-6.67-18.374-21.329-18.374
			c-106.971,0-301.029,262.645-312.797,397.303c-25.296,23.974-77.46,54.303-112.383,54.303c-11.012,0-15.416-5.159-15.416-12.522
			c0-21.331,35.301-63.993,35.301-71.355c0-1.448-0.756-3.65-1.447-5.097c-1.51-2.203-2.957-2.957-5.16-2.957
			c-5.663,0-19.695,16.297-31.147,36.244c-25.673,24.729-77.775,54.933-113.011,54.933c-20.576,0-35.301-10.258-36.055-38.195
			c15.479-13.277,26.491-25.799,26.491-30.958c0-2.203-1.51-2.895-5.16-2.895c-15.416,0-27.245,14.724-31.651,31.588
			c-11.766,8.873-60.282,42.663-80.919,42.663c-6.607,0-9.502-3.649-9.502-9.565c0-22.778,46.311-78.655,119.115-78.655
			c5.16,0,11.075,0,16.926,0.692c2.203,0,10.32,0,10.32-8.054c0-3.712-0.756-8.809-22.086-8.809
			c-53.297,0-96.778,27.938-121.318,56.946c-31.84,27.372-87.779,65.882-123.584,65.882c-19.884,0-33.097-11.768-33.097-44.173
			c0-83.123,54.429-192.674,54.429-244.209c0-18.373-6.607-29.385-25.043-29.385c-35.301,0-94.89,44.11-152.969,99.294
			c29.385-64.749,50.717-128.742,50.717-167.693c0-156.68-272.147,49.675-330.226-103.356c-1.51-4.405-4.406-5.159-6.607-5.159
			c-16.235,0-16.235,8.117-16.235,8.117c44.173,157.435,341.3-50.431,341.3,104.803c0,45.557-31.588,121.317-68.398,191.981
			c-69.154,72.049-128.679,152.969-128.679,184.62c0,4.404,2.201,7.362,6.606,7.362c27.184,0,90.486-94.197,139-194.183
			c62.546-62.547,130.945-117.731,161.085-117.731c10.32,0,13.97,8.117,13.97,21.331c0,50.024-55.122,175.81-55.122,238.356
			c0,47.067,19.821,63.994,47.067,63.994c31.714,0,73.747-22.968,106.215-47.445c-1.636,4.908-2.516,9.502-2.516,13.591
			c0,11.012,5.852,18.375,20.576,18.375c17.619,0,57.386-23.534,87.527-47.068v4.405c0,20.639,9.564,39.013,34.545,39.013
			c34.419,0,84.507-24.729,114.521-46.187c-3.459,9.125-5.662,17.997-5.662,25.548c0,12.522,5.914,21.394,22.086,21.394
			c38.886,0,97.658-31.525,125.094-54.24c0.943,37.88,19.569,61.54,63.93,61.54c42.411,0,111.123-44.614,134.658-68.147l0.062-0.063
			l14.6-12.648c18.373-16.926,38.255-30.895,49.267-30.895c5.162,0,7.365,2.894,7.365,8.054c0,22.086-43.42,82.367-77.272,83.877
			c-5.097-0.755-8.056-3.712-9.565-14.724c-0.691-4.405-3.65-5.915-6.606-5.915c-8.056,0-14.726,6.669-14.726,14.724
			c0,16.927,13.97,23.534,34.608,23.534c32.344,0,82.37-14.661,119.181-34.545
			C3774.278,3461.656,3793.404,3447.686,3801.522,3438.122L3801.522,3438.122z M3741.934,3046.042c8.809,0,12.52,4.405,12.52,12.522
			c0,56.632-203.747,292.723-297.19,359.674C3480.106,3288.802,3666.926,3046.042,3741.934,3046.042z M2639.377,3488.146
			c-1.447,0-2.201-0.756-2.201-2.203c0-20.638,41.907-75.76,94.134-133.147C2690.157,3427.047,2647.494,3488.146,2639.377,3488.146z
			"/>
		<path style="fill:#CA6F90;" d="M3416.867,3287.292c-8.872,0-19.129,12.522-19.129,19.884c0,3.649,2.894,7.362,6.607,7.362
			c8.054,0,17.619-13.214,17.619-20.576C3421.965,3290.25,3420.518,3287.292,3416.867,3287.292z"/>
		<g>
			<g>
				<linearGradient id="SVGID_4_" gradientUnits="userSpaceOnUse" x1="1866.0776" y1="1342.9141" x2="3251.3313" y2="2385.071">
					<stop  offset="0" style="stop-color:#EAA3C2"/>
					<stop  offset="1" style="stop-color:#C96D8D"/>
				</linearGradient>
			</g>
		</g>
		<g>
			<linearGradient id="SVGID_5_" gradientUnits="userSpaceOnUse" x1="1560.9878" y1="3691.218" x2="3439.0122" y2="3691.218">
				<stop  offset="0" style="stop-color:#EAA3C2"/>
				<stop  offset="1" style="stop-color:#C96D8D"/>
			</linearGradient>
			<polygon style="fill:url(#SVGID_5_);" points="1560.988,3691.218 1795.741,3690.243 2030.494,3689.687 2500,3689.22 
				2969.506,3689.68 3204.259,3690.237 3439.012,3691.218 3204.259,3692.198 2969.506,3692.756 2500,3693.216 2030.494,3692.75 
				1795.741,3692.192 			"/>
		</g>
		<g>
			<path style="fill:#353535;" d="M1238.648,3993.327c-11.67-4.447-20.775-10.199-27.323-17.25l5.793-9.569
				c6.209,6.547,14.562,11.879,25.056,15.991c10.489,4.115,21.53,6.169,33.115,6.169c16.785,0,29.463-3.187,38.025-9.569
				c8.562-6.378,12.843-14.689,12.843-24.931c0-7.89-2.266-14.185-6.799-18.887c-4.533-4.698-10.16-8.311-16.873-10.828
				c-6.717-2.519-15.782-5.119-27.196-7.807c-12.93-3.187-23.294-6.296-31.101-9.317c-7.807-3.022-14.44-7.681-19.894-13.977
				c-5.458-6.295-8.184-14.731-8.184-25.308c0-8.562,2.266-16.408,6.799-23.545c4.533-7.134,11.458-12.8,20.775-16.998
				c9.317-4.195,20.94-6.295,34.877-6.295c9.735,0,19.304,1.428,28.708,4.281c9.4,2.856,17.541,6.716,24.426,11.583l-4.784,10.324
				c-7.051-4.867-14.819-8.562-23.294-11.08c-8.479-2.519-16.833-3.778-25.056-3.778c-16.286,0-28.625,3.274-37.018,9.821
				c-8.396,6.548-12.591,15.027-12.591,25.435c0,7.893,2.266,14.188,6.799,18.886c4.533,4.702,10.156,8.31,16.873,10.829
				c6.713,2.518,15.865,5.205,27.449,8.058c12.925,3.191,23.25,6.295,30.974,9.317c7.72,3.021,14.311,7.598,19.768,13.724
				c5.454,6.131,8.184,14.398,8.184,24.805c0,8.562-2.309,16.368-6.925,23.419c-4.62,7.051-11.71,12.677-21.279,16.872
				c-9.569,4.198-21.323,6.295-35.255,6.295C1262.611,4000,1250.314,3997.777,1238.648,3993.327z"/>
			<path style="fill:#353535;" d="M1466.42,3959.457h-82.347l-18.13,39.285h-12.843l65.725-141.776h12.591l65.978,141.776h-13.095
				L1466.42,3959.457z M1461.383,3948.881l-36.263-79.073l-36.262,79.073H1461.383z"/>
			<path style="fill:#353535;" d="M1625.821,3998.741l-33.744-46.588c-4.029,0.504-8.228,0.756-12.591,0.756h-40.041v45.832h-12.591
				v-141.776h52.632c18.13,0,32.359,4.241,42.683,12.717c10.325,8.479,15.487,20.271,15.487,35.381
				c0,11.08-2.896,20.441-8.688,28.078c-5.792,7.641-14.063,13.138-24.804,16.494l35.758,49.105H1625.821z M1613.103,3932.638
				c7.807-6.46,11.71-15.653,11.71-27.574c0-11.919-3.903-21.066-11.71-27.448c-7.806-6.378-19.181-9.569-34.121-9.569h-39.537
				v74.287h39.537C1593.922,3942.333,1605.297,3939.103,1613.103,3932.638z"/>
			<path style="fill:#353535;" d="M1769.105,3959.457h-82.347l-18.13,39.285h-12.844l65.725-141.776h12.591l65.978,141.776h-13.095
				L1769.105,3959.457z M1764.068,3948.881l-36.263-79.073l-36.262,79.073H1764.068z"/>
			<path style="fill:#353535;" d="M2040.312,3822.465v176.276h-10.576l-120.12-153.108v153.108h-12.843v-176.276h10.828
				l119.867,153.108v-153.108H2040.312z"/>
			<path style="fill:#353535;" d="M2120.643,3990.557c-11.419-6.295-20.398-14.94-26.945-25.938
				c-6.548-10.993-9.822-23.294-9.822-36.891c0-13.43,3.274-25.643,9.822-36.641c6.547-10.993,15.526-19.642,26.945-25.937
				c11.415-6.295,24.175-9.443,38.277-9.443s26.858,3.147,38.277,9.443c11.415,6.296,20.398,14.944,26.945,25.937
				c6.548,10.998,9.821,23.211,9.821,36.641c0,13.598-3.273,25.898-9.821,36.891c-6.547,10.998-15.53,19.643-26.945,25.938
				c-11.419,6.296-24.175,9.443-38.277,9.443S2132.058,3996.853,2120.643,3990.557z M2190.775,3980.862
				c9.483-5.202,16.954-12.465,22.412-21.782c5.454-9.318,8.184-19.682,8.184-31.101c0-11.583-2.73-21.991-8.184-31.226
				c-5.458-9.23-12.929-16.494-22.412-21.782c-9.487-5.288-20.106-7.932-31.856-7.932c-11.753,0-22.329,2.645-31.73,7.932
				c-9.404,5.288-16.833,12.591-22.286,21.909c-5.458,9.317-8.184,19.685-8.184,31.1c0,11.419,2.726,21.782,8.184,31.101
				c5.454,9.317,12.882,16.58,22.286,21.782c9.401,5.205,19.977,7.806,31.73,7.806
				C2170.669,3988.668,2181.289,3986.067,2190.775,3980.862z"/>
			<path style="fill:#353535;" d="M2463.874,3856.966l-48.602,141.776h-13.347l-43.565-123.896l-43.314,123.896h-13.597
				l-48.603-141.776h13.347l42.557,124.903l43.817-124.903h12.087l43.566,125.659l43.061-125.659H2463.874z"/>
			<path style="fill:#353535;" d="M2519.275,3990.557c-11.419-6.295-20.398-14.94-26.945-25.938
				c-6.548-10.993-9.822-23.294-9.822-36.891c0-13.43,3.274-25.643,9.822-36.641c6.547-10.993,15.526-19.642,26.945-25.937
				c11.415-6.295,24.175-9.443,38.277-9.443c14.102,0,26.858,3.147,38.277,9.443c11.415,6.296,20.398,14.944,26.945,25.937
				c6.548,10.998,9.821,23.211,9.821,36.641c0,13.598-3.273,25.898-9.821,36.891c-6.547,10.998-15.53,19.643-26.945,25.938
				c-11.419,6.296-24.175,9.443-38.277,9.443C2543.449,4000,2530.69,3996.853,2519.275,3990.557z M2589.408,3980.862
				c9.483-5.202,16.954-12.465,22.412-21.782c5.454-9.318,8.184-19.682,8.184-31.101c0-11.583-2.73-21.991-8.184-31.226
				c-5.458-9.23-12.929-16.494-22.412-21.782c-9.487-5.288-20.107-7.932-31.856-7.932c-11.753,0-22.329,2.645-31.73,7.932
				c-9.404,5.288-16.833,12.591-22.286,21.909c-5.458,9.317-8.184,19.685-8.184,31.1c0,11.419,2.726,21.782,8.184,31.101
				c5.454,9.317,12.882,16.58,22.286,21.782c9.401,5.205,19.977,7.806,31.73,7.806
				C2569.301,3988.668,2579.921,3986.067,2589.408,3980.862z"/>
			<path style="fill:#353535;" d="M2673.891,3856.966h57.416c15.613,0,29.211,2.983,40.795,8.939
				c11.584,5.961,20.481,14.315,26.693,25.056c6.209,10.746,9.317,23.002,9.317,36.767c0,13.937-3.108,26.276-9.317,37.017
				c-6.213,10.747-15.109,19.1-26.693,25.056c-11.583,5.961-25.182,8.94-40.795,8.94h-57.416V3856.966z M2730.803,3987.913
				c13.429,0,25.014-2.518,34.752-7.554c9.734-5.037,17.163-12.087,22.286-21.153c5.119-9.066,7.68-19.556,7.68-31.478
				c0-11.749-2.561-22.117-7.68-31.1c-5.123-8.979-12.552-15.991-22.286-21.027c-9.738-5.036-21.323-7.554-34.752-7.554h-44.321
				v119.867H2730.803z"/>
			<path style="fill:#353535;" d="M3038.025,3856.966l-48.602,141.776h-13.347l-43.565-123.896l-43.313,123.896H2875.6
				l-48.603-141.776h13.347l42.557,124.903l43.817-124.903h12.087l43.566,125.659l43.061-125.659H3038.025z"/>
			<path style="fill:#353535;" d="M3093.425,3990.557c-11.419-6.295-20.398-14.94-26.945-25.938
				c-6.548-10.993-9.822-23.294-9.822-36.891c0-13.43,3.274-25.643,9.822-36.641c6.547-10.993,15.526-19.642,26.945-25.937
				c11.415-6.295,24.175-9.443,38.277-9.443s26.858,3.147,38.277,9.443c11.415,6.296,20.398,14.944,26.945,25.937
				c6.548,10.998,9.821,23.211,9.821,36.641c0,13.598-3.273,25.898-9.821,36.891c-6.547,10.998-15.53,19.643-26.945,25.938
				c-11.419,6.296-24.175,9.443-38.277,9.443S3104.84,3996.853,3093.425,3990.557z M3163.557,3980.862
				c9.483-5.202,16.954-12.465,22.412-21.782c5.454-9.318,8.184-19.682,8.184-31.101c0-11.583-2.73-21.991-8.184-31.226
				c-5.458-9.23-12.929-16.494-22.412-21.782c-9.487-5.288-20.107-7.932-31.856-7.932c-11.753,0-22.329,2.645-31.73,7.932
				c-9.404,5.288-16.833,12.591-22.286,21.909c-5.458,9.317-8.184,19.685-8.184,31.1c0,11.419,2.726,21.782,8.184,31.101
				c5.454,9.317,12.883,16.58,22.286,21.782c9.401,5.205,19.977,7.806,31.73,7.806
				C3143.451,3988.668,3154.071,3986.067,3163.557,3980.862z"/>
			<path style="fill:#353535;" d="M3347.007,3998.741l-33.744-46.588c-4.029,0.504-8.228,0.756-12.591,0.756h-40.041v45.832h-12.591
				v-141.776h52.632c18.13,0,32.358,4.241,42.683,12.717c10.324,8.479,15.487,20.271,15.487,35.381
				c0,11.08-2.896,20.441-8.688,28.078c-5.792,7.641-14.063,13.138-24.804,16.494l35.758,49.105H3347.007z M3334.29,3932.638
				c7.807-6.46,11.71-15.653,11.71-27.574c0-11.919-3.904-21.066-11.71-27.448c-7.806-6.378-19.181-9.569-34.121-9.569h-39.537
				v74.287h39.537C3315.109,3942.333,3326.484,3939.103,3334.29,3932.638z"/>
			<path style="fill:#353535;" d="M3410.589,3994.712c-9.655-3.525-17.25-8.058-22.79-13.598l5.792-9.57
				c5.202,5.206,12.087,9.404,20.649,12.591c8.562,3.191,17.542,4.785,26.946,4.785c13.259,0,23.207-2.432,29.841-7.303
				c6.63-4.867,9.947-11.245,9.947-19.139c0-6.043-1.806-10.867-5.414-14.479c-3.612-3.608-8.102-6.378-13.473-8.31
				c-5.375-1.928-12.508-3.903-21.405-5.918c-10.577-2.518-19.056-4.993-25.434-7.429c-6.382-2.431-11.835-6.209-16.368-11.332
				c-4.533-5.118-6.799-12.043-6.799-20.775c0-11.245,4.489-20.48,13.472-27.701c8.979-7.216,21.782-10.827,38.404-10.827
				c8.392,0,16.451,1.093,24.175,3.273c7.72,2.184,14.354,5.375,19.894,9.569l-5.037,10.325
				c-10.746-8.058-23.841-12.087-39.284-12.087c-12.929,0-22.664,2.518-29.211,7.554c-6.548,5.037-9.821,11.502-9.821,19.39
				c0,6.044,1.802,10.871,5.414,14.479c3.608,3.612,8.015,6.382,13.22,8.311c5.202,1.932,12.505,3.99,21.909,6.17
				c10.407,2.518,18.843,4.997,25.308,7.429c6.461,2.435,11.919,6.17,16.369,11.205c4.446,5.037,6.673,11.753,6.673,20.146
				c0,11.418-4.533,20.692-13.598,27.826c-9.066,7.138-22.078,10.703-39.033,10.703
				C3430.358,4000,3420.241,3998.237,3410.589,3994.712z"/>
			<path style="fill:#353535;" d="M3577.673,3930.497l-30.975,31.226v37.018h-12.591v-141.776h12.591v88.641l87.382-88.641h14.857
				l-62.451,64.467l66.733,77.309h-15.361L3577.673,3930.497z"/>
			<path style="fill:#353535;" d="M3764.781,3959.457h-82.347l-18.13,39.285h-12.844l65.726-141.776h12.591l65.978,141.776h-13.095
				L3764.781,3959.457z M3759.744,3948.881l-36.263-79.073l-36.262,79.073H3759.744z"/>
		</g>
	</g>
	<g>
	</g>
	<g>
	</g>
	<g>
	</g>
	<g>
	</g>
	<g>
	</g>
	<g>
	</g>
	<g>
	</g>
	<g>
	</g>
	<g>
	</g>
	<g>
	</g>
	<g>
	</g>
</g>
</svg>
