<?xml version="1.0" encoding="iso-8859-1"?>
<!-- Generator: Adobe Illustrator 23.0.2, SVG Export Plug-In . SVG Version: 6.00 Build 0)  -->
<svg version="1.1" xmlns="http://www.w3.org/2000/svg" xmlns:xlink="http://www.w3.org/1999/xlink" x="0px" y="0px"
	 viewBox="0 0 5000 5000" style="enable-background:new 0 0 5000 5000;" xml:space="preserve">
<g id="Warstwa_1">
</g>
<g id="Warstwa_3">
	<linearGradient id="SVGID_1_" gradientUnits="userSpaceOnUse" x1="2006.8025" y1="3437.0205" x2="2023.0359" y2="3437.0205">
		<stop  offset="0" style="stop-color:#EA94BB;stop-opacity:0.8"/>
		<stop  offset="1" style="stop-color:#AD325B;stop-opacity:0.8"/>
	</linearGradient>
	<path style="fill:url(#SVGID_1_);" d="M2006.802,3443.973c0,0,0,0,0.061,0.063c6.167-4.719,11.642-9.501,16.172-14.032
		C2017.121,3435.164,2012.717,3439.569,2006.802,3443.973z"/>
	<g>
		<g>
			<linearGradient id="SVGID_2_" gradientUnits="userSpaceOnUse" x1="1394.4539" y1="1598.0344" x2="3810.3049" y2="3415.5322">
				<stop  offset="0" style="stop-color:#EAA3C2"/>
				<stop  offset="1" style="stop-color:#C96D8D"/>
			</linearGradient>
			<path style="fill:url(#SVGID_2_);" d="M3792.263,1653.622c-45.244-90.486-99.599-169.406-156.14-229.623
				c-0.053-0.054-0.108-0.108-0.216-0.162c-19.837-21.135-41.591-43.027-61.048-58.053l-0.164,0.216
				c-272.594-236.486-617.945-366-981.405-366c-400.649,0-777.352,156.054-1060.648,439.351
				c-283.244,283.298-439.297,659.947-439.297,1060.595c0,404.162,158.702,783.838,446.648,1067.946
				C1823.021,3847.243,2207.183,4000,2604.804,4000h319.514c4.81,0,54.162-0.486,101.081-18.378
				c47.297-18,92.433-36.324,125.405-62.216c31.46-24.757,167.407-110.054,222.217-138l2-1.027
				c27.135-13.838,59.243-30.271,97.461-47.081c10-4.433,20.323-8.811,31.189-13.298c30.648-12.486,64.757-24.865,102.808-36.27
				c4.218-1.351,6.812-5.568,5.946-9.838v-0.054c-0.43-2.217-3.296-13.082-19.188-21.838c-15.406-8.541-43.135-15.135-92.919-9.838
				c-73.839,7.784-164,48.216-228.649,87.838c6.973-7.351,14.378-15.135,22.161-23.081c26.758-27.729,57.731-58.432,88.812-86.811
				c23.242-21.243,46.594-41.135,68.431-57.514c2.272-1.676,3.407-4.27,3.407-6.865c0-2.162-0.866-4.324-2.486-6
				c-0.164-0.216-9.029-8.757-24.811-14.379h-0.054c-18.919-6.648-47.892-8.918-83.892,13.081
				c-31.73,19.351-84.811,68.379-135.135,119.946c-47.189,48.378-91.946,98.973-114.486,129.567
				c46.486-61.298,198.432-198.108,258.486-234.865c23.622-14.487,43.081-16.757,57.568-14.703
				c-6.594,4.919-13.244,9.837-19.893,14.757c-5.297,3.946-10.703,8-13.945,13.729c-4.379,7.514-4.216,16.865-1.784,25.135
				c0.216,0.757,0.433,1.351,0.756,2.108v0.053c-84.107,76.163-167.568,170.378-175.026,178.919l-0.054,0.054
				c-1.622,1.405-3.242,2.919-4.864,4.379c-10.973,9.999-21.946,20.324-33.028,30.702c-41.243,38.594-83.784,78.541-124.433,101.73
				c-10.865,6.107-21.189,12.432-31.243,18.594c-28.81,17.622-56.107,34.324-90.647,44.324h-24.488
				c27.135-10.162,57.568-25.297,80.758-47.027c40.703-38.054,56.919-77.568,68.811-106.432c3.892-9.406,7.188-17.568,10.865-24.649
				c2.053-3.892,4.271-8.865,7.134-15.135c9.568-21.243,25.676-56.757,57.082-101.406c16.703-23.675,37.729-50,64.433-78.162
				c23.567-24.811,51.566-51.027,84.865-78.162c2.108-1.73,3.135-4.162,3.135-6.649c0-3.352-1.947-6.703-5.622-8.054
				c-1.135-0.379-13.352-4.541-33.406-3.838c-26.648,0.757-67.135,10.162-113.837,48.162
				c-74.162,60.432-138.758,163.406-162.595,209.406c-3.514,6.865-6.594,13.243-9.405,19.027
				c-10.055,20.811-16.108,33.297-29.351,39.189c-16.811,7.459-101.892,12.27-150.487-5.838
				c-53.082-19.729-95.188-39.513-145.621-68.27l-8.054-4.703c-60.973-35.027-203.946-117.135-342.108-111.675
				c-62.541,2.541-121.838,19.459-169.189,38.108c46.054-31.838,94.703-64.703,110.217-72.757c4.702-2.379,9.297-5.027,13.945-7.73
				c27.892-16,59.459-34.162,163.947-34.162c45.838,0,100.595,0.865,158.487,1.838c96.486,1.568,196.107,3.244,251.945,0.379
				c48.055-2.433,96.163-5.297,139.189-9.19c3.19,3.622,7.027,6.649,11.352,8.919c15.35,7.729,33.729,4.972,50.648,1.946
				c9.189-1.675,18.379-3.297,27.568-4.919c-16.379,19.946-44.919,42.919-93.135,52.919c-48.27,10-125.622,18.109-191.19,23.73
				c-63.999,5.568-116.702,8.648-120.27,8.865c7.514,0,218.433,4.108,314.919-15.837c51.027-10.541,82.324-34.704,101.082-56.541
				c5.189-6.108,9.404-12.054,12.702-17.459c8.812-13.946,12.054-24.541,12.378-25.676c1.676-5.622-2.648-11.027-8.162-11.027
				c-0.702,0-1.514,0.108-2.324,0.378c-29.244,8.162-73.46,13.892-124.487,18.325c-40.757,3.459-85.893,6.107-131.135,8.432
				c-55.297,2.865-154.703,1.189-250.758-0.378c-58.054-0.919-112.756-1.838-158.81-1.838c-109.081,0-144.216,20.216-172.486,36.487
				c-4.433,2.54-8.812,5.027-13.298,7.352c-16.431,8.486-65.351,44.27-110.918,78.594c-44.109,33.081-85.191,64.811-91.19,69.189
				c8.81-5.081,135.568-75.567,269.675-80.811c133.46-5.297,273.189,75.081,332.865,109.406l8.108,4.703
				c51.243,29.297,94.162,49.405,148.109,69.459c51.296,19.135,141.08,15.352,163.458,5.514
				c18.974-8.486,26.866-24.865,37.785-47.46c2.755-5.675,5.783-11.892,9.243-18.648c23.189-44.865,86.162-145.297,158.162-203.946
				c33.026-26.865,62.216-38.162,84.54-42.432c-8.433,8.703-16.81,17.351-25.135,25.946c-5.351,5.513-10.811,11.189-14.433,18
				c-3.567,6.541-5.189,14.486-3.026,21.568v0.054c-79.136,83.189-109.946,151.135-125.028,184.594
				c-2.703,6.055-4.865,10.865-6.703,14.325c-4,7.784-7.675,16.648-11.567,26c-11.839,28.919-26.649,64.973-64.594,100.486
				c-40.596,37.892-107.785,54.649-130.866,59.514h-224.324c-816.648,0-1495.513-668.162-1494.432-1484.919
				c1.081-816.703,665.839-1480.81,1482.811-1480.81c385.567,0,752.023,150.919,1029.644,418.216
				c0.164,0.108,0.269,0.216,0.433,0.378c0.217,0.216,0.433,0.432,0.649,0.649c124.485,133.567,267.003,396.487,265.491,682.379
				c-1.837,329.243-261.56,578.995-266.697,584.184h-0.053v0.054c-60.758,60.594-225.9,170.356-315.791,170.356
				c-29.405,0-47.784-9.243-47.784-36.811c0-38.541,47.784-100.973,47.784-119.297c0-7.406-5.568-25.73-14.757-25.73
				c-16.487,0-255.351,163.405-293.892,163.405c-3.621,0-5.514-3.622-5.514-7.298c0-36.756,90.055-152.432,90.055-176.378
				c0-23.785-9.19-31.135-22.054-31.135c-33.135,0-93.676,53.242-113.838,73.459c-6.594,5.675-12.324,11.027-18.161,16.162
				c-84.758,62.432-186.811,71.946-303.244,71.946c146.865-126.702,205.676-315.946,257.135-516.054
				c385.675-246.216,686.973-473.837,686.973-609.838c0-38.54-38.651-56.973-95.569-56.973
				c-170.811,0-521.622,167.135-596.918,497.784c-11.081,51.406-22.054,102.811-34.865,152.432
				c-253.514,163.46-538.217,332.433-782.541,479.406c-165.244-29.406-295.729-58.811-339.784-58.811
				c-56.919,0-84.432,20.216-84.432,53.298c0,51.459,47.729,121.189,152.432,168.972
				c-137.784,84.487-246.162,154.271-297.568,196.541c-9.189,9.189-12.812,14.757-12.812,18.433c0,5.405,3.623,7.297,9.19,7.297
				c1.783,0,12.864-5.568,14.594-7.297c91.892-62.486,198.378-128.594,319.567-202.162c66.163,23.946,148.865,40.432,251.676,40.432
				c242.487,0,407.783-53.243,521.676-139.567h40.324c116.92,0,211.352,0,307.352-72.378c0.108-0.108,0.271-0.162,0.433-0.216
				c2.27-1.135,4.377-2.594,6.324-4.541c25.784-20.216,68-64.27,80.811-64.27c3.675,7.352-95.459,134.054-95.459,189.189
				c0,14.703,7.296,25.676,27.458,25.676c51.514,0,271.892-135.891,268.217-126.702c-9.135,20.162-20.216,45.892-20.216,67.946
				c0,42.27,31.243,58.757,75.297,58.757c119.46,0,308.439-120.789,356.222-175.924c2.65-2.757,263.669-266.4,265.562-604.292
				C3907.669,1925.622,3845.021,1759.189,3792.263,1653.622z M3015.129,3953.135c9.891-6.108,20.162-12.325,30.702-18.378
				c42.433-24.163,85.784-64.757,127.676-104c11.026-10.379,22.053-20.703,32.918-30.649c4.973-4.486,9.838-8.865,14.757-13.189
				c52.865-46.486,185.352-117.676,280.973-127.783c12.054-1.244,22.595-1.784,31.73-1.784c11.352,0,20.648,0.811,28.215,2.162
				c-11.513,4.162-22.376,9.729-32.433,16.757c-8.971,6.378-17.62,14-22.432,23.837c-57.514,22.865-103.351,46.271-139.999,65.027
				l-2,0.973c-55.459,28.324-193.081,114.703-225.082,139.838c-30.973,24.378-74.864,42.162-120.81,59.73
				c-16.108,6.107-32.703,10.054-47.514,12.594C2986.643,3970.486,3000.696,3961.946,3015.129,3953.135z M2941.399,2059.675
				c75.352-262.649,380.217-416.918,519.839-416.918c42.216,0,69.782,14.594,69.782,44.053
				c0,106.594-280.972,317.73-635.458,547.297C2910.209,2177.189,2924.912,2118.378,2941.399,2059.675z M1815.508,2893.459
				c-90.001-40.324-119.406-99.081-119.406-139.513c0-16.54,18.378-23.892,55.135-23.892c33.026,0,128.541,22.054,266.324,44.108
				L1815.508,2893.459z M2091.02,2943.081c-104.702,0-183.62-14.702-242.432-34.865l214.811-126.702
				c128.595,18.324,286.594,36.703,468.432,42.217C2425.291,2897.243,2283.94,2943.081,2091.02,2943.081z M2559.399,2801.675
				c-150.648-1.838-312.216-22.054-453.675-45.892c238.81-141.459,492.269-292.054,721.838-437.188
				C2777.939,2506,2706.264,2684.162,2559.399,2801.675z"/>
		</g>
	</g>
	<g>
	</g>
	<g>
	</g>
	<g>
	</g>
	<g>
	</g>
	<g>
	</g>
	<g>
	</g>
	<g>
	</g>
	<g>
	</g>
	<g>
	</g>
	<g>
	</g>
	<g>
	</g>
</g>
</svg>
